<?xml version="1.0" standalone="no"?>
<!DOCTYPE svg PUBLIC "-//W3C//DTD SVG 20010904//EN"
 "http://www.w3.org/TR/2001/REC-SVG-20010904/DTD/svg10.dtd">
<svg version="1.0" xmlns="http://www.w3.org/2000/svg"
 width="366.000000pt" height="366.000000pt" viewBox="0 0 366.000000 366.000000"
 preserveAspectRatio="xMidYMid meet">
<metadata>
Created by potrace 1.14, written by Peter Selinger 2001-2017
</metadata>
<g transform="translate(0.000000,366.000000) scale(0.100000,-0.100000)"
fill="#000000" stroke="none">
<path d="M2893 3362 c-35 -3 -43 -8 -53 -33 l-12 -29 -208 0 -207 0 -108 -80
c-59 -44 -111 -82 -115 -85 -4 -2 -52 7 -106 21 -76 20 -129 27 -229 29 -170
4 -330 -23 -302 -51 4 -4 41 0 83 8 391 78 812 -101 1038 -441 89 -134 152
-309 162 -451 l5 -75 -33 -20 c-60 -37 -60 -134 0 -160 21 -9 23 -14 17 -54
-9 -60 -51 -183 -88 -256 -108 -217 -319 -411 -537 -494 -94 -36 -130 -44
-130 -31 0 14 -54 40 -84 40 -13 0 -38 -12 -55 -26 -26 -21 -31 -33 -31 -69 0
-36 5 -48 31 -69 57 -48 131 -25 151 48 10 39 15 44 57 55 67 17 237 103 301
151 208 155 348 368 406 613 15 64 22 79 40 83 78 20 83 142 8 176 -19 9 -24
19 -24 49 0 98 -50 281 -110 399 -104 207 -312 407 -506 487 l-42 17 105 78
105 78 198 0 198 0 22 -35 c20 -32 26 -35 68 -35 45 0 48 2 69 41 l22 41 -22
39 c-25 44 -27 45 -84 41z m57 -55 c21 -38 -1 -77 -45 -77 -27 0 -35 5 -45 30
-10 25 -10 34 3 53 21 32 67 29 87 -6z m-46 -1189 c22 -31 20 -64 -4 -88 -40
-40 -110 -11 -110 45 0 57 83 88 114 43z m-861 -979 c45 -61 -38 -133 -95 -82
-23 20 -23 71 -1 95 24 27 71 20 96 -13z"/>
<path d="M1630 3031 c-334 -71 -603 -332 -691 -668 -115 -443 138 -923 569
-1080 187 -68 422 -71 614 -7 27 8 48 19 48 24 0 4 -19 10 -42 14 -63 10 -180
62 -266 119 -42 28 -111 62 -153 77 -98 34 -182 86 -251 155 -377 373 -203
994 315 1125 54 13 91 30 120 53 60 48 127 85 203 112 36 12 67 25 70 27 6 7
-120 45 -190 57 -89 16 -250 12 -346 -8z"/>
<path d="M776 2022 c-14 -23 40 -232 88 -342 5 -11 -10 -28 -54 -58 -55 -39
-60 -46 -61 -80 0 -20 0 -183 -1 -362 l0 -325 -32 -15 c-68 -33 -64 -128 7
-163 36 -18 38 -18 75 0 66 32 74 123 13 161 -14 9 -28 18 -31 20 -3 2 -5 160
-5 352 l-1 349 54 40 55 40 56 -84 c67 -101 190 -230 205 -215 6 6 -13 34 -60
82 -145 150 -241 336 -274 531 -12 65 -23 87 -34 69z m33 -1218 c8 -7 14 -27
14 -45 0 -81 -113 -89 -126 -9 -11 65 64 101 112 54z"/>
<path d="M1241 886 c-72 -25 -106 -116 -65 -174 44 -63 164 -68 213 -9 17 21
8 22 -22 3 -90 -59 -205 35 -155 127 31 60 90 63 150 10 26 -24 39 -31 35 -20
-4 10 -7 27 -7 38 0 10 -3 18 -7 17 -5 -1 -19 2 -33 5 -51 13 -76 14 -109 3z"/>
<path d="M1445 885 c-16 -7 -24 -14 -17 -14 17 -1 17 -182 0 -199 -9 -9 0 -12
42 -12 48 0 52 1 35 14 -23 17 -29 80 -10 96 8 7 24 9 35 5 19 -6 21 -13 18
-61 l-3 -54 44 0 c40 0 43 1 26 14 -12 8 -19 27 -20 54 -1 23 -8 48 -15 57
-14 17 -53 20 -81 5 -18 -10 -19 -7 -15 50 3 33 2 60 -2 60 -4 -1 -20 -7 -37
-15z"/>
<path d="M2006 889 c-42 -12 -85 -57 -92 -97 -21 -110 123 -174 220 -97 31 23
14 27 -29 5 -47 -24 -81 -18 -117 21 -37 39 -39 99 -3 134 39 40 97 30 142
-23 l23 -27 0 38 c0 25 -4 37 -12 35 -7 -1 -22 1 -33 5 -38 12 -70 14 -99 6z"/>
<path d="M2195 885 c-20 -9 -24 -14 -12 -14 15 -1 17 -12 17 -94 0 -59 -4 -97
-12 -105 -9 -9 -1 -12 38 -12 38 1 45 3 32 11 -24 14 -25 97 -2 106 9 3 24 2
33 -4 20 -12 27 -79 10 -99 -10 -12 -4 -14 37 -14 38 1 45 3 32 11 -13 7 -18
23 -18 54 0 65 -38 93 -91 65 -18 -10 -19 -7 -19 50 0 33 -3 60 -7 60 -5 -1
-21 -7 -38 -15z"/>
<path d="M1665 775 c-33 -32 -32 -68 1 -94 34 -27 75 -27 105 0 23 19 23 20 2
10 -32 -16 -51 -13 -73 9 -23 23 -26 42 -7 39 36 -4 97 2 97 11 0 6 -9 19 -20
30 -28 28 -75 26 -105 -5z m73 3 c20 -20 14 -28 -23 -28 -19 0 -35 4 -35 8 0
12 22 32 35 32 6 0 16 -5 23 -12z"/>
<path d="M2422 777 c-27 -29 -28 -71 -2 -97 24 -24 60 -26 101 -4 39 20 33 27
-9 12 -27 -10 -34 -9 -51 7 -36 31 -26 44 37 47 l57 3 -27 28 c-34 34 -76 36
-106 4z m62 7 c28 -11 18 -34 -14 -34 -18 0 -30 5 -30 13 0 25 15 32 44 21z"/>
<path d="M916 558 c-9 -12 -16 -28 -16 -35 0 -7 -7 -10 -15 -7 -8 4 -15 1 -15
-5 0 -6 6 -11 14 -11 11 0 13 -11 9 -52 -3 -29 -11 -65 -18 -80 -8 -16 -10
-28 -5 -28 19 0 40 33 41 66 1 19 3 39 4 44 1 6 3 19 4 30 1 13 8 20 21 20 11
0 20 5 20 11 0 7 -9 9 -21 6 -15 -4 -19 -2 -15 10 3 8 6 19 6 24 0 5 9 9 20 9
11 0 20 5 20 10 0 19 -39 10 -54 -12z"/>
<path d="M1666 571 c-5 -8 -25 -132 -26 -158 0 -26 26 -12 28 15 4 54 42 96
66 72 5 -5 9 -30 7 -55 -1 -25 3 -45 8 -45 14 0 25 64 17 96 -6 24 -10 26 -48
21 l-40 -5 4 34 c4 32 -4 45 -16 25z"/>
<path d="M2176 558 c-3 -13 -8 -50 -11 -83 -4 -33 -7 -63 -8 -66 -1 -4 2 -8 8
-9 11 -1 19 31 29 120 5 39 3 60 -3 60 -6 0 -13 -10 -15 -22z"/>
<path d="M2527 564 c-8 -8 1 -24 13 -24 4 0 10 7 14 15 5 15 -14 21 -27 9z"/>
<path d="M650 533 c0 -16 -3 -52 -6 -80 -8 -63 11 -75 20 -13 3 22 9 58 12 80
5 32 3 40 -10 40 -11 0 -16 -9 -16 -27z"/>
<path d="M1205 550 c-4 -6 7 -10 26 -10 l32 0 -7 -70 c-5 -47 -4 -70 3 -70 6
0 11 3 12 8 0 4 3 19 5 35 2 15 6 39 8 55 2 15 5 30 5 35 1 4 15 7 31 7 17 0
30 5 30 10 0 6 -30 10 -69 10 -39 0 -73 -4 -76 -10z"/>
<path d="M2417 529 c-3 -12 -10 -18 -16 -14 -6 3 -11 1 -11 -4 0 -6 5 -11 10
-11 6 0 9 -20 8 -45 -2 -56 11 -70 49 -59 l28 8 -28 4 c-26 3 -28 6 -25 45 2
35 7 43 26 45 12 2 22 7 22 12 0 5 -7 7 -16 3 -10 -4 -17 1 -21 16 -7 27 -19
27 -26 0z"/>
<path d="M720 486 c0 -18 -3 -48 -6 -65 -5 -25 -4 -30 8 -26 7 3 15 20 16 37
3 42 38 81 62 68 13 -7 16 -19 12 -62 -3 -43 -2 -51 9 -40 7 7 13 35 14 65 0
51 -1 52 -31 55 -19 2 -38 -3 -48 -13 -14 -15 -16 -15 -16 -1 0 9 -4 16 -10
16 -5 0 -10 -15 -10 -34z"/>
<path d="M995 495 c-31 -30 -32 -58 -4 -86 39 -39 119 -1 119 56 0 56 -72 74
-115 30z m85 -14 c11 -22 -9 -65 -33 -69 -44 -9 -64 55 -26 82 24 16 45 12 59
-13z"/>
<path d="M1382 503 c-20 -17 -26 -36 -23 -75 2 -25 38 -41 77 -33 44 8 45 25
1 18 -23 -3 -37 0 -46 11 -17 20 -12 25 25 32 56 9 65 15 62 37 -4 30 -65 36
-96 10z m78 -13 c0 -11 -27 -20 -58 -20 l-27 1 22 18 c22 18 63 18 63 1z"/>
<path d="M1531 503 c-29 -26 -34 -70 -10 -94 20 -20 31 -22 67 -13 30 9 28 22
-3 16 -31 -5 -55 13 -55 43 0 27 23 48 55 49 39 3 42 16 3 16 -20 0 -45 -8
-57 -17z"/>
<path d="M1880 505 c-16 -20 -6 -43 25 -57 37 -17 32 -38 -10 -38 -19 0 -35
-4 -35 -10 0 -11 33 -13 67 -4 44 12 36 56 -14 75 -43 16 -19 37 35 30 6 -1
12 3 12 9 0 16 -66 12 -80 -5z"/>
<path d="M2013 505 c-32 -22 -35 -64 -7 -92 29 -29 56 -29 90 0 29 25 35 66
14 92 -16 19 -69 19 -97 0z m82 -27 c8 -24 -20 -68 -43 -68 -42 0 -55 47 -23
79 23 23 58 18 66 -11z"/>
<path d="M2230 466 c0 -65 17 -85 56 -67 31 14 47 14 39 1 -3 -5 -1 -10 5 -10
14 0 18 13 23 78 3 39 1 52 -9 52 -8 0 -14 -11 -14 -25 0 -35 -20 -74 -41 -80
-33 -11 -42 4 -35 56 6 40 4 49 -9 49 -12 0 -15 -12 -15 -54z"/>
<path d="M2515 464 c-6 -50 -2 -75 10 -63 2 3 8 30 13 62 7 43 6 57 -3 57 -8
0 -15 -22 -20 -56z"/>
<path d="M2600 502 c-43 -35 -15 -112 40 -112 9 0 29 9 44 21 28 22 36 75 14
97 -18 18 -73 14 -98 -6z m85 -23 c8 -26 -20 -69 -44 -69 -46 0 -53 73 -8 89
28 11 45 4 52 -20z"/>
<path d="M2748 460 c-2 -43 1 -60 10 -60 7 0 12 13 12 30 0 38 41 83 66 73 14
-5 15 -15 10 -59 -5 -46 -4 -53 9 -47 12 4 15 18 13 62 -3 53 -4 56 -31 59
-16 2 -35 -2 -43 -9 -10 -8 -14 -8 -14 0 0 6 -6 11 -14 11 -10 0 -15 -17 -18
-60z"/>
<path d="M2920 505 c-16 -20 -6 -43 25 -57 39 -18 33 -41 -10 -36 -34 4 -46
-4 -24 -17 17 -11 77 4 83 22 8 19 -10 42 -41 54 -43 16 -19 37 35 30 6 -1 12
3 12 9 0 16 -66 12 -80 -5z"/>
</g>
</svg>
